<?xml version="1.0" standalone="no"?>
<!DOCTYPE svg PUBLIC "-//W3C//DTD SVG 20010904//EN"
 "http://www.w3.org/TR/2001/REC-SVG-20010904/DTD/svg10.dtd">
<svg version="1.0" xmlns="http://www.w3.org/2000/svg"
 width="1280.000000pt" height="1280.000000pt" viewBox="0 0 1280.000000 1280.000000"
 preserveAspectRatio="xMidYMid meet">
<metadata>
Created by potrace 1.14, written by Peter Selinger 2001-2017
</metadata>
<g transform="translate(0.000000,1280.000000) scale(0.100000,-0.100000)"
fill="#000000" stroke="none">
<path d="M0 9490 c0 -2967 3 -3445 22 -3282 3 23 8 27 40 30 l38 3 0 65 0 64
458 -2 457 -3 3 -247 4 -248 -511 0 -511 0 0 -460 0 -459 113 -3 112 -3 5
-112 c3 -62 10 -117 15 -122 7 -7 102 -12 245 -13 l235 -3 5 -113 c4 -85 9
-115 20 -122 9 -6 175 -10 398 -10 l382 0 0 -129 c0 -178 -9 -170 195 -173
l160 -3 3 -67 3 -68 -379 0 c-347 0 -382 -2 -401 -17 -19 -16 -21 -30 -23
-153 l-3 -135 -259 -3 c-171 -1 -264 -6 -273 -13 -10 -9 -13 -48 -13 -159 0
-147 0 -148 -25 -164 l-25 -16 0 -234 c0 -177 3 -236 13 -244 15 -12 1027 -19
1047 -7 8 5 11 39 10 109 -1 55 -1 107 -1 114 1 9 61 12 264 12 191 0 266 3
275 12 8 8 12 48 12 113 0 65 4 105 12 113 8 8 49 12 119 12 63 0 110 4 114
10 4 6 9 68 11 138 3 70 7 133 9 140 3 8 35 12 114 12 60 0 116 -3 125 -6 13
-5 16 -23 16 -95 l0 -89 -109 0 c-143 0 -141 2 -141 -141 l0 -109 -110 0
c-144 0 -144 0 -139 -173 l4 -122 -112 -5 c-62 -3 -117 -10 -122 -15 -6 -6
-12 -60 -13 -120 l-3 -110 -135 -5 c-74 -3 -141 -9 -147 -13 -10 -6 -13 -49
-13 -155 0 -81 -4 -152 -8 -158 -4 -6 -15 -13 -24 -17 -17 -6 -18 -34 -18
-396 0 -341 2 -392 16 -405 22 -23 499 -24 530 -2 16 12 19 29 22 125 l4 111
108 0 c142 0 140 -2 140 172 l0 128 133 0 c175 0 167 -8 167 178 0 88 4 142
10 142 5 0 19 9 30 20 16 16 20 33 20 90 l0 70 80 0 80 0 1 -77 c2 -203 11
-399 20 -408 6 -5 60 -12 122 -15 l112 -5 3 -355 c1 -195 0 -365 -3 -377 -5
-21 -11 -23 -83 -23 -47 0 -83 -5 -90 -12 -17 -17 -16 -212 1 -226 7 -6 49
-12 92 -14 l80 -3 0 -30 0 -30 -113 -5 c-85 -4 -115 -9 -122 -20 -14 -22 -13
-213 2 -228 9 -9 110 -12 393 -12 283 0 384 -3 393 -12 8 -8 12 -48 12 -113 0
-65 4 -105 12 -113 9 -9 81 -12 263 -12 182 0 254 -3 263 -12 16 -16 16 -180
0 -196 -8 -8 -48 -12 -113 -12 -65 0 -105 -4 -113 -12 -8 -8 -12 -49 -12 -120
l0 -108 4275 0 4275 0 0 108 c0 71 -4 112 -12 120 -8 8 -48 12 -113 12 -65 0
-105 4 -113 12 -8 8 -12 48 -12 114 0 103 0 103 -30 124 -29 21 -30 23 -30
109 0 54 4 91 12 99 8 8 48 12 113 12 55 0 106 4 114 9 10 6 15 46 18 157 5
142 6 150 29 169 22 18 24 29 26 115 l3 95 93 3 92 3 0 149 c0 81 3 155 6 164
3 9 17 16 30 16 l24 0 0 530 0 529 -117 3 -118 3 -2 95 c-4 121 -7 134 -38
148 -24 11 -25 15 -25 101 0 111 0 111 138 111 82 0 101 3 106 16 3 9 6 81 6
160 l0 144 25 0 25 0 0 410 0 410 -25 0 -25 0 0 115 0 115 25 0 25 0 0 565 0
565 -142 0 c-79 0 -149 4 -157 9 -17 11 -6 48 19 61 10 5 26 33 36 62 9 29 23
59 31 66 7 7 24 38 38 68 14 30 31 54 39 54 17 0 28 24 20 45 -4 8 -1 15 5 15
6 0 11 8 11 18 0 10 14 29 30 44 21 18 30 35 30 56 0 16 9 37 20 47 20 18 20
31 20 1336 l0 1319 -242 2 -243 3 -3 112 c-2 76 -7 114 -16 122 -8 7 -105 12
-272 13 l-259 3 -3 112 c-2 76 -7 114 -16 122 -8 7 -139 12 -397 13 l-384 3
-3 137 c-2 97 -6 139 -16 147 -8 7 -139 12 -397 13 l-384 3 -3 112 c-2 76 -7
114 -16 122 -8 7 -139 12 -397 13 l-384 3 -3 112 c-2 77 -7 114 -16 122 -9 8
-284 12 -922 13 l-909 3 0 130 0 130 790 2 c729 3 791 4 803 20 8 11 12 54 12
125 l0 108 115 0 c103 0 115 2 125 19 5 11 10 67 10 125 l0 106 115 0 c103 0
115 2 125 19 6 12 10 118 10 275 l0 256 134 0 c109 0 138 3 150 16 13 12 16
39 16 125 l0 109 109 0 c86 0 113 3 125 16 13 12 16 41 16 149 l0 133 258 7
c146 4 262 12 270 17 8 7 12 44 12 119 l0 109 114 0 c149 0 146 -3 146 141 l0
109 384 0 c336 0 387 2 400 16 13 13 16 42 16 160 l0 144 -4020 0 -4020 0 0
-264 0 -264 -111 -4 c-96 -3 -113 -6 -125 -23 -12 -16 -14 -173 -12 -1081 2
-584 7 -1066 11 -1071 5 -4 61 -10 125 -13 l117 -5 0 -105 0 -105 -509 -3
c-348 -1 -513 -6 -522 -13 -9 -8 -14 -46 -16 -122 l-3 -112 -384 -3 c-258 -1
-389 -6 -397 -13 -10 -8 -14 -50 -16 -147 l-3 -137 -380 0 -380 0 -3 257 -2
257 122 3 123 3 3 398 2 397 119 0 c99 0 120 3 125 16 3 9 6 188 6 400 l0 383
148 3 147 3 3 272 2 272 123 3 122 3 3 248 2 247 113 0 c75 0 117 4 125 12 8
8 12 58 12 160 l0 148 -1210 0 -1210 0 0 -3310z m7480 1030 l0 -110 -780 0
-780 0 0 110 0 110 780 0 780 0 0 -110z m-1595 -275 l0 -130 -932 -3 -933 -2
0 135 0 135 933 -2 932 -3 0 -130z m-1887 -3358 c6 -7 13 -60 14 -118 l3 -104
138 -5 c124 -4 140 -7 153 -25 12 -17 14 -64 12 -277 -2 -141 -7 -260 -11
-265 -5 -4 -72 -10 -150 -13 l-142 -5 -3 -774 c-1 -569 1 -777 9 -788 10 -11
59 -13 263 -11 l251 3 5 660 c3 363 9 668 14 678 7 15 23 17 121 17 80 0 116
-4 122 -12 4 -7 10 -62 13 -123 l5 -110 143 -3 142 -3 0 105 c0 76 4 107 14
115 9 8 51 11 122 9 l109 -3 5 -112 c3 -61 9 -115 13 -120 5 -4 59 -10 120
-13 l112 -5 3 -135 c1 -74 7 -139 13 -145 6 -6 114 -12 272 -15 l262 -5 3
-110 c2 -89 6 -112 19 -122 22 -17 204 -18 221 -1 9 9 12 138 12 518 0 380 3
509 12 518 18 18 511 17 526 -1 6 -7 13 -62 14 -123 l3 -109 115 0 115 0 3
264 c1 175 6 269 13 278 9 10 47 13 150 13 l139 0 0 108 c0 71 4 112 12 120
17 17 232 16 246 -1 6 -7 13 -60 14 -118 l3 -104 113 -5 c99 -4 116 -8 128
-25 12 -17 14 -64 12 -277 -2 -141 -7 -260 -11 -265 -5 -4 -61 -10 -125 -13
l-117 -5 -3 -774 c-1 -569 1 -777 9 -788 10 -11 59 -13 263 -11 l251 3 5 1185
c3 652 9 1191 13 1198 12 18 480 17 495 -1 6 -7 13 -62 14 -123 l3 -109 134
-3 c77 -1 140 -7 148 -13 9 -8 13 -51 15 -147 l3 -137 112 -3 c76 -2 114 -7
122 -16 7 -8 12 -97 13 -242 l3 -229 112 -5 c65 -3 117 -10 124 -17 14 -14 15
-769 2 -1743 l-8 -645 -111 -3 c-146 -4 -143 1 -146 -167 l-3 -130 -379 -7
c-262 -5 -382 -11 -392 -19 -10 -8 -14 -39 -14 -120 0 -104 -1 -109 -22 -114
-13 -3 -138 -7 -278 -10 -140 -2 -306 -7 -367 -10 l-113 -6 0 -105 c0 -99 -1
-105 -22 -115 -16 -6 -369 -7 -1083 -2 l-1060 8 -3 104 c-1 58 -8 111 -14 118
-8 10 -89 13 -387 13 -280 0 -380 3 -389 12 -8 8 -12 48 -12 114 0 69 -4 105
-12 111 -8 6 -167 13 -387 17 -205 3 -377 9 -382 12 -5 3 -9 63 -9 133 0 162
3 159 -140 163 l-105 3 -3 106 c-3 137 -3 137 -142 141 l-105 3 -3 106 c-4
141 0 138 -167 141 l-130 3 -8 540 c-15 1119 -18 1827 -6 1841 8 10 48 14 147
16 l137 3 3 265 c2 235 4 266 19 278 11 8 54 12 125 12 l108 0 0 101 c0 142
-3 139 134 139 81 0 117 -4 124 -13z m-1926 -1219 c3 -40 4 -136 4 -213 l-1
-140 -75 0 -75 0 -5 145 -5 145 -145 5 -145 5 -3 63 -3 62 224 0 225 0 4 -72z
m253 -513 l0 -90 -77 -3 -78 -3 0 89 c0 49 3 92 7 96 4 4 39 5 78 4 l70 -3 0
-90z m1602 -2430 c4 -150 6 -160 43 -175 29 -12 30 -15 30 -75 0 -39 -5 -67
-13 -73 -7 -6 -62 -13 -123 -14 l-109 -3 -3 -134 c-1 -79 -7 -140 -14 -148
-15 -19 -201 -18 -217 1 -8 9 -11 46 -9 103 l3 88 88 5 c63 4 90 9 97 20 5 8
10 79 10 158 l0 142 25 10 c24 9 25 14 25 84 0 40 3 88 6 105 l7 32 76 -3 76
-3 2 -120z"/>
<path d="M6718 5839 c-16 -9 -18 -33 -18 -269 l0 -260 120 0 120 0 -2 268 -3
267 -100 2 c-56 2 -108 -2 -117 -8z"/>
<path d="M5604 3677 c-2 -7 -3 -62 -2 -123 l3 -109 145 -5 145 -5 3 -112 c2
-78 7 -114 16 -122 9 -8 86 -11 247 -9 l234 3 2 100 c4 158 -11 144 156 147
l142 3 0 120 0 120 -145 0 -145 0 -3 -115 c-2 -76 -7 -117 -15 -122 -7 -4
-114 -8 -238 -8 -175 0 -229 3 -237 13 -6 7 -13 62 -14 123 l-3 109 -143 3
c-112 2 -144 0 -148 -11z"/>
<path d="M5114 3667 c-2 -7 -3 -58 -2 -113 l3 -99 113 -3 112 -3 0 116 0 115
-110 0 c-83 0 -112 -3 -116 -13z"/>
<path d="M5362 3318 l3 -113 110 0 110 0 3 113 3 112 -116 0 -116 0 3 -112z"/>
</g>
</svg>
