<svg xmlns="http://www.w3.org/2000/svg" width="51" height="39" viewBox="0 0 51 39" fill="#fff" fill-opacity="0.48">
  <path d="M12.5 0L2.75083 6.18765L12.9841 11.5369L12.5 0ZM1 22L0.113775 21.5367C-0.0282035 21.8084 -0.0377913 22.1301 0.08776 22.4097C0.213311 22.6892 0.460135 22.8958 0.757464 22.9701L1 22ZM39.6667 33C39.6667 35.9455 42.0545 38.3333 45 38.3333C47.9455 38.3333 50.3333 35.9455 50.3333 33C50.3333 30.0545 47.9455 27.6667 45 27.6667C42.0545 27.6667 39.6667 30.0545 39.6667 33ZM7.44449 7.51277L0.113775 21.5367L1.88623 22.4633L9.21694 8.43928L7.44449 7.51277ZM0.757464 22.9701L44.7575 33.9701L45.2425 32.0299L1.24254 21.0299L0.757464 22.9701Z"/>
</svg>