<svg width="17" height="23" viewBox="0 0 17 23" fill="none" xmlns="http://www.w3.org/2000/svg">
  <path d="M5.5 0C5 2.5 2.5 5 0 5.5C2.5 6 5 8.5 5.5 11C6 8.5 8.5 6 11 5.5C8.5 5 6 2.5 5.5 0Z" fill="#FFF850"/>
  <path d="M12.5 9C12.0909 11.0455 10.0455 13.0909 8 13.5C10.0455 13.9091 12.0909 15.9545 12.5 18C12.9091 15.9545 14.9545 13.9091 17 13.5C14.9545 13.0909 12.9091 11.0455 12.5 9Z" fill="#FFC700"/>
  <path d="M5.5 16C5.18182 17.5909 3.59091 19.1818 2 19.5C3.59091 19.8182 5.18182 21.4091 5.5 23C5.81818 21.4091 7.40909 19.8182 9 19.5C7.40909 19.1818 5.81818 17.5909 5.5 16Z" fill="#FF9C40"/>
</svg>
