<svg xmlns="http://www.w3.org/2000/svg" version="1.1" xmlns:xlink="http://www.w3.org/1999/xlink" xmlns:svgjs="http://svgjs.com/svgjs" width="64" height="61.748"><svg xmlns="http://www.w3.org/2000/svg" width="64" height="61.748" viewBox="0 0 64 61.748"><g data-paper-data="{&amp;quot;isPaintingLayer&amp;quot;:true}" stroke-miterlimit="10" style="mix-blend-mode:normal"><path d="M2.431 37.185h2.026c5.582 0.028 10.168 -1.714 15.301 -3.646 14.057 -7.936 -2.528 -20.985 -6.47 -29.48a1.864 1.864 0 0 1 -0.324 -1.094 1.722 1.722 0 0 1 0.308 -1.138 1.88 1.88 0 0 1 0.997 -0.697 2.107 2.107 0 0 1 1.236 -0.105c5.817 -1.098 11.449 -1.454 17.298 -0.365 17.396 3.302 31.202 15.358 31.202 32.292 0 14.199 -16.326 31.356 -32.612 28.476 -12.988 0.016 -28.715 -8.994 -31.356 -21.552 0 0 -0.267 -1.256 0.717 -1.928 0.583 -0.762 1.673 -0.762 1.673 -0.762zm19.125 -0.203c-5.668 2.175 -10.841 4.011 -17.015 4.051 3.46 9.95 16.691 16.549 27.252 16.561 13.871 2.856 28.16 -12.789 28.16 -24.643 0 -15.074 -12.405 -25.567 -27.945 -28.52 -4.74 -0.924 -9.338 -0.701 -14.025 0.069 5.813 10.614 20.235 22.921 3.573 32.486z"></path><path d="M17.89 4.331c4.687 -0.77 9.378 -1.013 14.118 -0.089 15.536 2.949 28.147 13.652 28.147 28.727 0 11.854 -14.495 27.673 -28.362 24.821 -10.565 -0.016 -23.983 -6.733 -27.438 -16.683 6.174 -0.045 11.359 -1.851 17.027 -4.023 16.662 -9.561 2.325 -22.14 -3.492 -32.754z" data-paper-data="{&amp;quot;noHover&amp;quot;:false,&amp;quot;origItem&amp;quot;:[&amp;quot;Path&amp;quot;,{&amp;quot;applyMatrix&amp;quot;:true,&amp;quot;segments&amp;quot;:[[[529.24436,362.79585],[8.22488,-4.97013],[-2.79847,1.12836]],[[520.84404,364.89974],[3.04826,-0.0225],[1.70767,5.1699]],[[534.29854,373.50487],[-5.21506,-0.00749],[6.84703,1.48213]],[[548.2,360.7],[0,6.15814],[0,-7.83366]],[[534.40388,345.88058],[7.67129,1.53426],[-2.33958,-0.48078]],[[527.47929,345.91576],[2.31472,-0.39906],[2.87122,5.5169]]],&amp;quot;closed&amp;quot;:true}]}" fill="#f8d820"></path><path d="M36.055 21.021v8.852m8.678 -8.852v8.852" fill="none" stroke="#000" stroke-linecap="round" stroke-width="4.051145714647424"></path><path d="M48.148 37.38c1.811 0.863 0.903 2.585 0.903 2.585l-1.025 1.936c-2.649 3.776 -13.458 8.588 -18.392 4.975 -2.406 -1.758 -1.912 -6.871 -2.159 -9.431 0 0 -0.182 -1.916 1.835 -2.09 2.017 -0.174 2.2 1.742 2.2 1.742 0.069 0.713 0.081 6.453 0.543 6.697 3.229 1.701 10.699 -1.296 12.469 -3.824l0.907 -1.726s0.903 -1.722 2.714 -0.863z"></path></g></svg><style>@media (prefers-color-scheme: light) { :root { filter: none; } }
</style></svg>